<svg width="204" height="196" viewBox="0 0 204 196" fill="none" xmlns="http://www.w3.org/2000/svg">
<path d="M200.219 87.1595C200.548 86.2163 200.877 85.7981 200.454 84.3527C194.354 80.4466 189.185 76.8692 181.28 75.9541C179.999 75.8043 179.334 74.9744 177.76 75.2029C176.607 75.9013 175.455 76.5987 174.302 77.3004C171.86 79.9476 169.42 82.5872 166.975 85.2247C166.058 85.7227 165.138 86.2163 164.218 86.71C161.454 89.5426 159.566 93.4961 157.993 97.066C155.544 102.644 152.135 107.966 150.078 113.802C148.774 117.499 148.263 120.861 147.172 124.7C146.551 126.644 145.94 128.586 145.32 130.536C144.286 137.322 143.67 143.632 141.536 149.733C141.154 150.816 139.065 151.543 138.231 152.38C136.372 154.521 134.516 156.669 132.66 158.811C131.02 160.56 128.994 161.046 126.782 162.594C123.602 164.823 120.213 167.687 116.336 169.654C114.615 170.028 112.898 170.41 111.172 170.789C109.996 171.213 108.815 171.633 107.637 172.048C104.866 172.337 101.979 171.59 99.6256 171.234C97.4171 171.218 95.1989 171.208 92.9882 171.191C91.5245 170.776 90.0705 170.364 88.61 169.949C83.4536 169.245 80.4582 168.191 76.1231 166.471C75.443 166.279 74.7715 166.079 74.086 165.887C71.8386 163.91 70.6304 157.081 71.387 154.516C72.2698 151.561 74.5128 148.641 76.1037 146.015C77.3163 143.624 78.5245 141.224 79.7404 138.821C82.6171 134.817 86.8768 132.104 90.4499 128.52C91.2669 127.697 91.7605 126.723 93.0798 126.064C96.8631 124.166 102.387 122.535 105.623 123.474C110.443 124.868 113.978 133.859 111.985 138.716C108.784 140.324 104.542 140.684 102.778 138.231C100.911 135.648 100.731 126.59 96.3414 130.061C95.6462 130.645 95.5136 131.456 95.726 132.538C95.0609 133.075 94.0025 132.911 93.2534 133.509C92.5679 134.07 90.8013 139.201 90.8304 140.371C90.9306 145.163 94.0229 152.341 96.9008 154.548C97.9323 154.986 98.9671 155.421 100.002 155.855C101.09 156.672 101.971 157.824 103.356 158.102C104.565 157.957 105.777 157.821 106.986 157.671C107.823 157.658 108.992 157.95 110.079 157.401C111.619 156.626 112.198 155.119 113.367 154.188C114.656 153.447 115.941 152.713 117.226 151.972C117.698 150.882 118.167 149.793 118.628 148.707C122.929 143.201 126.184 137.549 126.534 129.809L125.354 125.529C125.012 118.131 117.1 104.883 112.812 103.043C110.802 102.546 108.791 102.037 106.777 101.536C103.426 101.643 92.6778 109.38 90.6579 111.027C86.7173 114.247 82.6883 116.992 79.5076 120.731C70.1809 131.675 65.4017 143.096 61.1022 156.928C60.6258 159.558 60.1483 162.189 59.6719 164.814C59.7829 168.059 61.4557 171.606 60.3671 174.131C62.2565 174.995 63.0337 177.661 64.6515 179.726C65.3705 180.644 66.4117 180.824 67.1489 181.488C68.2451 182.464 68.5437 184.092 69.5601 185.001C72.965 188.011 83.1022 191.687 87.8663 192.345C89.7482 192.545 91.629 192.747 93.511 192.954C94.9036 193.478 96.3004 194.009 97.692 194.531C100.672 194.819 102.516 194.584 105.823 194.743C106.609 195.009 107.406 195.261 108.2 195.528C109.305 195.55 109.773 194.736 110.781 194.963C112.701 195.392 114.101 196.115 116.765 195.763C120.86 195.228 123.795 192.239 126.712 190.568C132.478 187.26 136.687 182.968 141.134 179.096C142.642 177.956 144.155 176.828 145.668 175.684C146.78 174.512 147.735 172.227 148.933 171.323C149.71 171.018 150.49 170.709 151.271 170.401C153.493 168.671 154.628 166.019 156.267 163.966C158.315 161.429 163.411 157.261 164.467 154.505C165.568 151.641 165.959 146.705 165.716 143.356C165.607 141.861 164.658 140.878 164.949 139.53C165.502 136.993 167.39 134.676 168.622 132.466C169.851 130.276 169.827 127.584 171.319 125.529C172.931 123.543 174.548 121.568 176.166 119.583C177.53 117.419 178.289 114.287 180.104 112.444C182.542 109.971 186.037 109.372 188.876 107.14C189.929 106.311 189.979 104.989 190.746 104.034C191.544 103.426 192.342 102.828 193.135 102.22C195.812 99.4103 197.09 98.3971 201.687 97.6998C203.216 95.5365 202.694 92.7718 203.528 90.2798C202.777 88.5326 201.338 88.2168 200.219 87.1595Z" fill="#7D38F5"/>
<path d="M200.219 87.1595C200.548 86.2163 200.877 85.7981 200.454 84.3527C194.354 80.4466 189.185 76.8692 181.28 75.9541C179.999 75.8043 179.334 74.9744 177.76 75.2029C176.607 75.9013 175.455 76.5987 174.302 77.3004C171.86 79.9476 169.42 82.5872 166.975 85.2247C166.058 85.7227 165.138 86.2163 164.218 86.71C161.454 89.5426 159.566 93.4961 157.993 97.066C155.544 102.644 152.135 107.966 150.078 113.802C148.775 117.499 148.263 120.861 147.172 124.7C146.551 126.644 145.94 128.586 145.32 130.536C144.286 137.322 143.67 143.632 141.536 149.733C141.154 150.816 139.065 151.543 138.231 152.38C136.372 154.521 134.516 156.669 132.66 158.811C131.02 160.56 128.994 161.046 126.782 162.594C123.602 164.823 120.213 167.687 116.336 169.654C114.615 170.028 112.898 170.41 111.172 170.789C109.996 171.213 108.815 171.633 107.637 172.048C104.866 172.337 101.979 171.59 99.6256 171.234C97.4171 171.218 95.1989 171.208 92.9882 171.191C91.5245 170.776 90.0705 170.364 88.61 169.949C83.4536 169.245 80.4582 168.191 76.1231 166.471C75.443 166.279 74.7715 166.079 74.086 165.887C71.8386 163.91 70.6304 157.081 71.387 154.516C72.2698 151.561 74.5128 148.641 76.1037 146.015C77.3163 143.624 78.5245 141.224 79.7404 138.821C82.6171 134.817 86.8768 132.104 90.4499 128.52C91.2669 127.697 91.7605 126.723 93.0798 126.064C96.8631 124.166 102.387 122.534 105.623 123.474C110.443 124.868 113.978 133.859 111.985 138.716C108.784 140.324 104.542 140.684 102.778 138.231C100.911 135.648 100.731 126.59 96.3414 130.061C95.6462 130.645 95.5136 131.456 95.726 132.538C95.0609 133.075 94.0025 132.911 93.2534 133.509C92.5679 134.07 90.8013 139.201 90.8304 140.371C90.9306 145.163 94.023 152.341 96.9008 154.548C97.9323 154.986 98.9671 155.421 100.002 155.855C101.09 156.672 101.971 157.824 103.356 158.102C104.565 157.957 105.777 157.821 106.986 157.671C107.823 157.658 108.992 157.95 110.079 157.401C111.619 156.626 112.198 155.119 113.367 154.188C114.656 153.447 115.941 152.713 117.226 151.972C117.698 150.882 118.167 149.793 118.628 148.707C122.929 143.201 126.184 137.549 126.534 129.809L125.354 125.529C125.012 118.131 117.1 104.883 112.812 103.043C110.802 102.546 108.791 102.037 106.777 101.536C103.426 101.643 92.6778 109.38 90.6579 111.027C86.7173 114.247 82.6883 116.992 79.5076 120.731C70.1809 131.675 65.4017 143.096 61.1022 156.928C60.6258 159.558 60.1483 162.189 59.6719 164.814C59.7829 168.059 61.4557 171.606 60.3671 174.131C62.2565 174.995 63.0337 177.661 64.6515 179.726C65.3705 180.644 66.4117 180.824 67.1489 181.488C68.2451 182.464 68.5437 184.092 69.5601 185.001C72.965 188.011 83.1022 191.687 87.8663 192.345C89.7482 192.545 91.629 192.747 93.511 192.954C94.9036 193.478 96.3004 194.009 97.692 194.531C100.672 194.819 102.516 194.584 105.823 194.743C106.609 195.009 107.406 195.261 108.2 195.528C109.305 195.55 109.773 194.736 110.781 194.963C112.701 195.392 114.101 196.115 116.765 195.763C120.86 195.228 123.795 192.239 126.712 190.568C132.478 187.26 136.687 182.968 141.134 179.096C142.642 177.956 144.155 176.828 145.668 175.684C146.78 174.512 147.735 172.227 148.933 171.323C149.71 171.018 150.49 170.709 151.271 170.401C153.493 168.671 154.628 166.019 156.267 163.966C158.315 161.429 163.411 157.261 164.467 154.505C165.568 151.641 165.959 146.705 165.716 143.356C165.607 141.861 164.658 140.878 164.949 139.53C165.502 136.993 167.39 134.676 168.622 132.466C169.851 130.276 169.827 127.584 171.319 125.529C172.931 123.543 174.548 121.568 176.166 119.583C177.53 117.419 178.289 114.287 180.104 112.444C182.542 109.971 186.037 109.372 188.876 107.14C189.929 106.311 189.979 104.989 190.746 104.034C191.544 103.426 192.342 102.828 193.135 102.22C195.812 99.4103 197.09 98.3971 201.687 97.6998C203.216 95.5365 202.694 92.7718 203.528 90.2798C202.777 88.5326 201.338 88.2168 200.219 87.1595Z" fill="#4F39F6"/>
<path d="M132.933 81.9384C125.716 76.3336 105.057 75.6836 93.3621 79.0142C91.395 79.8915 89.429 80.7721 87.4609 81.6495C85.6425 83.0658 83.822 84.4713 82.0048 85.893C78.3121 88.3742 75.6466 89.6191 72.0411 92.095C68.4465 94.5611 64.5975 99.3133 61.7746 102.42C59.4551 104.454 57.1312 106.489 54.8128 108.515C52.2227 111.694 50.5445 115.443 48.6281 119.013C44.8513 126.059 40.6197 132.688 38.2915 140.595C39.0988 141.98 42.1847 143.323 44.2509 142.842C46.1965 140.301 47.5772 139.879 50.0217 137.648C51.2311 136.544 51.8746 134.708 52.9212 133.533C54.1715 132.333 55.4272 131.114 56.671 129.905C63.7482 121.552 70.1765 112.819 79.3414 105.502C80.7265 104.393 82.3378 104.127 83.9988 103.066C86.148 101.456 88.3048 99.8641 90.4551 98.257C91.6494 97.8798 92.8393 97.5036 94.0325 97.1328C94.3031 96.7168 94.5736 96.304 94.8431 95.8911C96.9988 95.1593 99.1491 94.422 101.299 93.6815C102.346 93.8249 103.396 93.9672 104.446 94.1116C105.22 93.8023 106 93.4918 106.78 93.1803C108.543 92.9378 113.503 93.6449 115.127 94.1924C117.388 94.9599 119.269 96.5573 121.375 97.5068C126.064 99.6431 131.706 99.6658 138.338 97.8798C139.097 96.3654 138.57 95.1323 138.76 93.1534C139.364 86.7758 137.018 85.1083 132.933 81.9384Z" fill="#FAA619"/>
<path d="M132.933 81.9384C125.716 76.3336 105.057 75.6836 93.3621 79.0142C91.395 79.8915 89.429 80.7721 87.4609 81.6495C85.6425 83.0658 83.822 84.4713 82.0048 85.893C78.3121 88.3742 75.6466 89.6191 72.0411 92.095C68.4465 94.5611 64.5975 99.3133 61.7746 102.42C59.4551 104.454 57.1312 106.489 54.8128 108.515C52.2227 111.693 50.5445 115.443 48.6281 119.013C44.8513 126.059 40.6197 132.688 38.2915 140.595C39.0988 141.98 42.1847 143.323 44.2509 142.842C46.1965 140.301 47.5772 139.879 50.0217 137.648C51.2311 136.544 51.8746 134.708 52.9212 133.533C54.1715 132.333 55.4272 131.114 56.671 129.905C63.7482 121.552 70.1765 112.819 79.3414 105.502C80.7265 104.393 82.3378 104.127 83.9988 103.066C86.148 101.456 88.3048 99.8641 90.4551 98.257C91.6494 97.8798 92.8393 97.5036 94.0325 97.1328C94.3031 96.7168 94.5736 96.304 94.8431 95.8911C96.9988 95.1593 99.1491 94.422 101.299 93.6815C102.346 93.8249 103.396 93.9672 104.446 94.1116C105.22 93.8023 106 93.4918 106.78 93.1803C108.543 92.9378 113.503 93.6449 115.127 94.1924C117.388 94.9599 119.269 96.5573 121.375 97.5068C126.064 99.6431 131.706 99.6658 138.338 97.8798C139.097 96.3654 138.57 95.1323 138.76 93.1534C139.364 86.7758 137.018 85.1083 132.933 81.9384Z" fill="#4F39F6"/>
<path d="M37.7181 88.3074C35.4956 85.8391 33.2806 83.3784 31.0656 80.9176C27.8504 77.8716 24.0768 76.1352 20.5792 73.723C18.5464 72.3207 16.0091 70.1111 13.3414 69.9494C10.4604 69.7813 7.46285 70.8376 3.91888 71.8335C2.21803 73.0655 1.31803 73.4966 1.90007 75.9897C1.45168 76.3023 1.013 76.6224 0.574312 76.9328C-0.654437 78.403 0.252033 83.3784 1.75348 85.395C2.57372 86.1269 3.40474 86.8631 4.22714 87.5949C4.35325 88.5736 4.48367 89.5394 4.60655 90.5224C4.91158 92.0572 8.02549 93.2202 9.05052 94.6203C13.4212 100.634 18.334 103.075 23.705 107.012C24.7063 107.749 26.2519 107.912 27.319 108.605C29.3475 109.948 30.9524 113.083 33.5296 113.38C35.7187 113.627 44.3512 110.305 45.7254 109.004C46.9143 107.889 46.6427 106.19 46.9316 104.497C47.284 103.341 47.6429 102.186 47.9943 101.036C48.1204 98.6828 42.9123 91.9936 41.5455 90.7056C40.2683 89.908 38.9867 89.1093 37.7181 88.3074ZM134.582 16.3555C133.777 15.1181 131.943 15.213 130.996 14.3087C130.539 13.5251 130.087 12.7382 129.629 11.9514C128.017 10.5545 123.084 11.6388 120.6 12.14C118.448 15.1494 118.257 18.495 117.166 22.1565C114.393 31.5112 113.663 41.4252 117.104 54.312C117.757 56.7835 119.209 67.3195 120.059 68.1925C121.139 68.9513 122.212 69.7188 123.283 70.4722C124.35 70.8074 125.06 69.9268 126.136 69.832C128.151 69.9969 130.162 70.1575 132.178 70.3288C136.079 70.0012 136.142 59.7153 136.295 56.513C136.541 51.3695 136.81 45.6989 136.503 40.0272C136.096 36.6331 135.69 33.24 135.282 29.8469C135.469 27.0596 136.59 19.3778 134.582 16.3555ZM95.576 25.3814C93.9765 21.1886 92.5699 16.4848 90.4821 12.6585L88.7101 6.23341C86.8799 2.23567 84.3653 -0.326381 80.3719 0.0336205C77.8389 2.65603 73.4564 2.36178 72.2912 5.71712C72.0649 7.36084 71.8493 9.00456 71.6327 10.6526C71.3115 11.9406 70.9967 13.2319 70.682 14.5156C70.0676 21.0636 74.2982 27.9402 76.5088 34.0883C77.3657 38.086 78.2345 42.0752 79.0892 46.0621C79.8502 48.0087 81.7149 52.1541 83.0223 54.0501C83.7391 54.728 84.4461 55.3898 85.1607 56.0603C86.6557 58.5479 86.978 60.349 88.3814 62.5198C89.263 63.6257 90.1436 64.7219 91.0199 65.8277C91.3875 66.7137 90.7742 67.6913 91.588 68.406C92.0536 68.8145 94.8646 69.1798 95.4176 69.2251C96.7864 69.3351 97.4321 68.0168 98.1445 67.6083C105.159 63.6009 102.71 59.4048 101.961 51.1356C101.544 46.6032 101.227 37.324 98.9949 33.0783C97.8761 30.9496 96.5504 27.9241 95.576 25.3814ZM67.4808 59.3477C66.8103 57.8031 66.1475 56.2554 65.4781 54.713C64.8411 53.8507 63.58 52.8979 62.9506 51.8081L61.8447 47.7813C58.5486 42.9827 55.2558 38.1766 51.9565 33.3726C48.7844 28.5859 45.6522 22.5165 39.0891 23.8067C36.2533 26.3946 32.2038 25.459 30.8511 29.9634C29.3119 35.0885 32.2803 43.6477 35.2477 49.0682C35.3048 49.9683 35.3598 50.8736 35.4147 51.765C36.2048 52.8925 37.0013 54.0199 37.7903 55.1398C38.0296 56.1788 38.2689 57.2222 38.5017 58.2623C40.4019 61.9539 43.8662 67.2095 46.4487 70.3331C47.187 70.7567 47.9275 71.1728 48.6691 71.5975C51.2872 74.8224 54.9411 81.4156 58.4699 82.5808C64.0403 84.4282 69.4446 79.7611 74.7649 77.9428C76.6091 73.0159 73.6493 67.299 70.9029 62.8658C69.7604 61.6996 68.6201 60.5236 67.4808 59.3477Z" fill="#FAA619"/>
<path d="M37.7181 88.3074C35.4956 85.8391 33.2806 83.3784 31.0656 80.9176C27.8504 77.8716 24.0768 76.1352 20.5792 73.723C18.5464 72.3207 16.0091 70.1111 13.3414 69.9494C10.4604 69.7813 7.46285 70.8376 3.91888 71.8335C2.21803 73.0655 1.31803 73.4966 1.90007 75.9897C1.45168 76.3023 1.013 76.6224 0.574312 76.9328C-0.654437 78.403 0.252033 83.3784 1.75348 85.395C2.57372 86.1269 3.40474 86.8631 4.22714 87.5949C4.35325 88.5736 4.48367 89.5394 4.60655 90.5224C4.91158 92.0572 8.02549 93.2202 9.05052 94.6203C13.4212 100.634 18.334 103.075 23.705 107.012C24.7063 107.749 26.2519 107.912 27.319 108.605C29.3475 109.948 30.9524 113.083 33.5296 113.38C35.7187 113.627 44.3512 110.305 45.7254 109.004C46.9143 107.889 46.6427 106.19 46.9316 104.497C47.284 103.341 47.6429 102.186 47.9943 101.036C48.1204 98.6828 42.9123 91.9936 41.5455 90.7056C40.2683 89.908 38.9867 89.1093 37.7181 88.3074ZM134.582 16.3555C133.777 15.1181 131.943 15.213 130.996 14.3087C130.539 13.5251 130.087 12.7382 129.629 11.9514C128.017 10.5545 123.084 11.6388 120.6 12.14C118.448 15.1494 118.257 18.495 117.166 22.1565C114.393 31.5112 113.663 41.4252 117.104 54.312C117.757 56.7835 119.209 67.3195 120.059 68.1925C121.139 68.9513 122.212 69.7188 123.283 70.4722C124.35 70.8074 125.06 69.9268 126.136 69.832C128.151 69.9969 130.162 70.1575 132.178 70.3288C136.079 70.0012 136.142 59.7153 136.295 56.513C136.541 51.3695 136.81 45.6989 136.503 40.0272C136.096 36.6331 135.69 33.24 135.282 29.8469C135.469 27.0596 136.59 19.3778 134.582 16.3555ZM95.576 25.3814C93.9765 21.1886 92.5699 16.4848 90.4821 12.6585L88.7101 6.23341C86.8799 2.23567 84.3653 -0.326381 80.3719 0.0336205C77.8389 2.65603 73.4564 2.36178 72.2912 5.71712C72.0649 7.36084 71.8493 9.00456 71.6327 10.6526C71.3115 11.9406 70.9967 13.2319 70.682 14.5156C70.0676 21.0636 74.2982 27.9402 76.5088 34.0883C77.3657 38.086 78.2345 42.0752 79.0892 46.0621C79.8502 48.0087 81.7149 52.1541 83.0223 54.0501C83.7391 54.728 84.4461 55.3898 85.1607 56.0603C86.6557 58.5479 86.978 60.349 88.3814 62.5198C89.263 63.6257 90.1436 64.7219 91.0199 65.8277C91.3875 66.7137 90.7742 67.6913 91.588 68.406C92.0536 68.8145 94.8646 69.1798 95.4176 69.2251C96.7864 69.3351 97.4321 68.0168 98.1445 67.6083C105.159 63.6009 102.71 59.4048 101.961 51.1356C101.544 46.6032 101.227 37.324 98.995 33.0783C97.8761 30.9496 96.5504 27.9241 95.576 25.3814ZM67.4808 59.3477C66.8103 57.8031 66.1475 56.2554 65.4781 54.713C64.8411 53.8507 63.58 52.8979 62.9506 51.8081L61.8447 47.7813C58.5486 42.9827 55.2558 38.1766 51.9565 33.3726C48.7844 28.5859 45.6522 22.5165 39.0891 23.8067C36.2533 26.3946 32.2038 25.459 30.8511 29.9634C29.3119 35.0885 32.2803 43.6477 35.2477 49.0683C35.3048 49.9683 35.3598 50.8736 35.4147 51.765C36.2048 52.8925 37.0013 54.0199 37.7903 55.1398C38.0296 56.1788 38.2689 57.2222 38.5017 58.2623C40.4019 61.9539 43.8662 67.2095 46.4487 70.3331C47.187 70.7567 47.9275 71.1728 48.6691 71.5975C51.2872 74.8224 54.9411 81.4156 58.4699 82.5808C64.0403 84.4282 69.4446 79.7611 74.7649 77.9428C76.6091 73.0159 73.6493 67.299 70.9029 62.8658C69.7604 61.6996 68.6201 60.5236 67.4808 59.3477Z" fill="#4F39F6"/>
</svg>
